<svg xmlns="http://www.w3.org/2000/svg" viewBox="0 0 512 512" role="img" aria-label="TELEGVIP">
<defs>
  <linearGradient id="bg" x1="70" y1="55" x2="450" y2="465" gradientUnits="userSpaceOnUse">
    <stop offset="0" stop-color="#31C5F4"/>
    <stop offset="0.52" stop-color="#2AABEE"/>
    <stop offset="1" stop-color="#6D5DFB"/>
  </linearGradient>
  <linearGradient id="badge" x1="330" y1="328" x2="447" y2="448" gradientUnits="userSpaceOnUse">
    <stop stop-color="#FF6CAF"/>
    <stop offset="1" stop-color="#F23B91"/>
  </linearGradient>
  <filter id="shadow" x="-30%" y="-30%" width="160%" height="170%">
    <feDropShadow dx="0" dy="16" stdDeviation="16" flood-color="#12204C" flood-opacity=".22"/>
  </filter>
</defs>
<rect x="22" y="22" width="468" height="468" rx="118" fill="url(#bg)"/>
<circle cx="145" cy="118" r="94" fill="#fff" opacity=".09"/>
<g id="icon-content" transform="translate(-8 -40) translate(256 256) scale(.95) translate(-256 -256)">
<path d="M95 246.7 394.5 125c22.4-9.1 42.8 12.1 32.8 34.1L299.8 440.3c-8.8 19.4-36.5 18.3-43.8-1.7l-43.3-119.1-117.1-42.1c-20.6-7.4-20.9-22.4-.6-30.7Z" fill="#fff" filter="url(#shadow)"/>
<path d="m212.7 319.5 151.7-137.8-112.1 165.5 3.7 91.4-43.3-119.1Z" fill="#DFF5FF"/>
<path d="m212.7 319.5 151.7-137.8-99.8 166.7-8.6 90.2-43.3-119.1Z" fill="#C9E9FA" opacity=".82"/>
<g filter="url(#shadow)">
  <circle cx="391" cy="391" r="82" fill="url(#badge)" stroke="#fff" stroke-width="14"/>
  <path d="M365 386v-13c0-15 11.8-27 26.3-27s26.3 12 26.3 27v13" fill="none" stroke="#fff" stroke-width="17" stroke-linecap="round"/>
  <rect x="354" y="380" width="75" height="63" rx="21" fill="#fff"/>
  <circle cx="391.5" cy="408" r="8" fill="#F23B91"/>
  <path d="M391.5 415v11" stroke="#F23B91" stroke-width="7" stroke-linecap="round"/>
</g>

</g>
</svg>
